<?xml version="1.0" encoding="utf-8"?>
<!-- Generator: Adobe Illustrator 28.2.0, SVG Export Plug-In . SVG Version: 6.00 Build 0)  -->
<!DOCTYPE svg PUBLIC "-//W3C//DTD SVG 1.0//EN" "http://www.w3.org/TR/2001/REC-SVG-20010904/DTD/svg10.dtd" [
	<!ENTITY st0 "fill:url(#Rectangle_129_00000008141122722114723390000013638377135198400640_);">
	<!ENTITY st1 "clip-path:url(#SVGID_00000044164507923423075150000006412527281527942577_);">
	<!ENTITY st2 "fill:#FFFFFF;">
]>
<svg version="1.0" id="Layer_1" xmlns="http://www.w3.org/2000/svg" xmlns:xlink="http://www.w3.org/1999/xlink" x="0px" y="0px"
	 viewBox="0 0 400 400" style="enable-background:new 0 0 400 400;" xml:space="preserve">
<g id="Group_2546" transform="translate(81 -6978)">
	
		<linearGradient id="Rectangle_129_00000017514629315533910620000001970065767066809772_" gradientUnits="userSpaceOnUse" x1="-176.8304" y1="7598.2734" x2="-177.6844" y2="7597.4014" gradientTransform="matrix(400 0 0 -400 71022 3046313)">
		<stop  offset="0" style="stop-color:#284DC1"/>
		<stop  offset="1" style="stop-color:#172A69"/>
	</linearGradient>
	<path id="Rectangle_129" style="fill:url(#Rectangle_129_00000017514629315533910620000001970065767066809772_);" d="M-1,6978h240
		c44.2,0,80,35.8,80,80v240c0,44.2-35.8,80-80,80H-1c-44.2,0-80-35.8-80-80v-240C-81,7013.8-45.2,6978-1,6978z"/>
	<g id="Group_2545" transform="translate(25 22)">
		<g id="Group_2544" transform="translate(-16 7011)">
			<g>
				<defs>
					<rect id="SVGID_1_" y="0" width="219.5" height="289.5"/>
				</defs>
				<clipPath id="SVGID_00000044168660108195318210000014293750497824466572_">
					<use xlink:href="#SVGID_1_"  style="overflow:visible;"/>
				</clipPath>
				<g id="Group_2543" style="clip-path:url(#SVGID_00000044168660108195318210000014293750497824466572_);">
					<path id="Path_986" style="&st2;" d="M202,124.2H17.5c-3.6,0-6.7,2.6-7.4,6.1l-10,54.4c-0.7,4.1,1.9,8,6,8.7
						c0.4,0.1,0.9,0.1,1.4,0.1c10.4,0,19.2-2.6,26.6-7.9c7.2-5,12.3-12.5,14.4-21h34.6V282c0,4.1,3.4,7.5,7.5,7.5l0,0h38.1
						c4.1,0,7.5-3.4,7.5-7.5l0,0V164.7H171c2.2,8.5,7.3,16,14.4,21.2c7.1,5.2,15.9,7.8,26.4,7.8h0.2c4.1,0,7.5-3.4,7.5-7.5
						c0-0.5,0-0.9-0.1-1.4l-10-54.4C208.7,126.8,205.6,124.3,202,124.2"/>
					<path id="Path_987" style="&st2;" d="M110.3,0c27.1,0,49,21.9,49,49s-21.9,49-49,49s-49-21.9-49-49S83.2,0,110.3,0"/>
				</g>
			</g>
		</g>
	</g>
</g>
</svg>
