<?xml version="1.0" encoding="utf-8"?>
<!-- Generator: Adobe Illustrator 28.2.0, SVG Export Plug-In . SVG Version: 6.00 Build 0)  -->
<!DOCTYPE svg PUBLIC "-//W3C//DTD SVG 1.0//EN" "http://www.w3.org/TR/2001/REC-SVG-20010904/DTD/svg10.dtd" [
	<!ENTITY st0 "fill:#294EC3;">
]>
<svg version="1.0" id="Group_2428" xmlns="http://www.w3.org/2000/svg" xmlns:xlink="http://www.w3.org/1999/xlink" x="0px" y="0px"
	 viewBox="0 0 78.6 15" style="enable-background:new 0 0 78.6 15;" xml:space="preserve">
<g>
	<path style="&st0;" d="M78.3,8.8c-0.2-0.5-0.5-0.9-0.9-1.2c-0.5-0.4-1-0.7-1.5-0.9c-0.7-0.3-1.5-0.5-2.2-0.6l-1.2-0.2
		c-0.4-0.1-0.8-0.2-1.2-0.3c-0.3-0.1-0.5-0.2-0.7-0.4c-0.2-0.1-0.3-0.3-0.4-0.5C70,4.6,70,4.3,70,4.1c0-0.2,0-0.4,0.1-0.6
		c0.1-0.2,0.2-0.3,0.4-0.5c0.2-0.1,0.4-0.2,0.7-0.3c0.3-0.1,0.6-0.1,1-0.1c0.4,0,0.8,0,1.2,0.1c0.3,0.1,0.6,0.2,0.8,0.4
		c0.2,0.2,0.4,0.4,0.5,0.6c0.1,0.3,0.2,0.6,0.2,0.9h3.2C78.1,4.3,78,4,78,3.6c-0.1-0.3-0.2-0.6-0.3-0.9c-0.1-0.3-0.3-0.6-0.5-0.8
		c-0.2-0.2-0.4-0.5-0.7-0.7C76.2,1,76,0.8,75.7,0.7c-0.3-0.2-0.7-0.3-1-0.4C73.8,0.1,73,0,72.1,0c-0.8,0-1.6,0.1-2.4,0.3
		c-0.3,0.1-0.7,0.2-1,0.4C68.5,0.8,68.2,1,68,1.2c-0.2,0.2-0.4,0.4-0.6,0.6C67.2,2,67,2.2,66.9,2.5c-0.1,0.3-0.2,0.5-0.3,0.8
		c-0.1,0.3-0.1,0.6-0.1,0.9c0,0.6,0.1,1.1,0.3,1.7c0.2,0.5,0.5,0.9,0.9,1.3c0.4,0.4,0.9,0.7,1.5,0.9c0.7,0.3,1.4,0.5,2.1,0.6L72.5,9
		c0.7,0.1,1.4,0.3,2,0.6c0.2,0.1,0.3,0.3,0.4,0.4c0.1,0.2,0.1,0.4,0.1,0.6c0,0.2,0,0.5-0.2,0.7c-0.1,0.2-0.3,0.4-0.5,0.5
		c-0.2,0.1-0.5,0.3-0.8,0.3c-0.4,0.1-0.7,0.1-1.1,0.1c-0.5,0-0.9,0-1.4-0.1c-0.3-0.1-0.7-0.2-1-0.4c-0.3-0.2-0.5-0.4-0.6-0.7
		c-0.1-0.4-0.2-0.7-0.2-1.1h-3.3c0,0.4,0,0.8,0.1,1.1c0.1,0.3,0.2,0.7,0.3,1c0.1,0.3,0.3,0.6,0.5,0.9c0.2,0.3,0.5,0.5,0.7,0.7
		c0.3,0.2,0.6,0.4,0.9,0.6c0.3,0.2,0.7,0.3,1.1,0.4c0.4,0.1,0.8,0.2,1.2,0.2C71.6,15,72,15,72.5,15l0,0c0.9,0,1.7-0.1,2.6-0.3
		c0.4-0.1,0.7-0.2,1-0.4c0.3-0.1,0.6-0.3,0.9-0.5c0.3-0.2,0.5-0.4,0.7-0.6c0.2-0.2,0.4-0.5,0.5-0.8c0.1-0.3,0.2-0.6,0.3-0.9
		c0.1-0.3,0.1-0.7,0.1-1C78.6,9.9,78.5,9.3,78.3,8.8z"/>
	<path style="&st0;" d="M27.6,5.9c-0.1-0.5-0.2-1-0.4-1.4c-0.5-1.4-1.4-2.5-2.6-3.3c-0.4-0.3-0.8-0.5-1.3-0.6
		c-0.5-0.2-0.9-0.3-1.4-0.4c-1-0.2-2.1-0.2-3.1,0c-0.5,0.1-1,0.2-1.4,0.4c-0.4,0.2-0.9,0.4-1.3,0.6c-0.4,0.3-0.8,0.6-1.1,0.9
		c-0.7,0.7-1.2,1.5-1.5,2.4c-0.2,0.5-0.3,1-0.4,1.4C13,7,13,8,13.1,9.1c0.1,0.5,0.2,1,0.4,1.4c0.5,1.4,1.4,2.5,2.6,3.3
		c0.4,0.3,0.8,0.5,1.3,0.6c0.5,0.2,0.9,0.3,1.4,0.4c1,0.2,2.1,0.2,3.1,0c0.5-0.1,1-0.2,1.4-0.4c0.4-0.2,0.9-0.4,1.3-0.6
		c0.4-0.3,0.8-0.6,1.1-0.9c0.7-0.7,1.2-1.5,1.5-2.4c0.2-0.5,0.3-0.9,0.4-1.4C27.8,8,27.8,7,27.6,5.9L27.6,5.9z M24,9.4L24,9.4
		c-0.2,0.5-0.4,1-0.8,1.4c-0.3,0.4-0.8,0.7-1.2,0.9c-1,0.4-2.1,0.4-3.1,0c-0.5-0.2-0.9-0.5-1.2-0.9c-0.4-0.4-0.6-0.9-0.8-1.4
		c-0.2-0.6-0.3-1.3-0.3-1.9c0-0.6,0.1-1.3,0.3-1.9c0.2-0.5,0.4-1,0.8-1.4c0.3-0.4,0.7-0.7,1.2-0.9c1-0.4,2.1-0.4,3.1,0
		c0.5,0.2,0.9,0.5,1.2,0.9c0.4,0.4,0.6,0.9,0.8,1.4c0.2,0.6,0.3,1.3,0.3,1.9C24.2,8.1,24.1,8.8,24,9.4z"/>
	<path style="&st0;" d="M44.3,0l-5.5,15h3.6l2.7-8.2c0.1-0.2,0.5-1.5,1.2-3.8c0.6,1.8,1,3,1.3,3.8l2.8,8.2h3.8L48.6,0H44.3z"/>
	<polygon style="&st0;" points="58.7,0 55.2,0 55.2,15 65.6,15 65.6,11.8 58.7,11.8 	"/>
	<polygon style="&st0;" points="40.8,0 28,0 28,3.2 32.6,3.2 32.6,15 36.2,15 36.2,3.2 40.8,3.2 	"/>
	<polygon style="&st0;" points="0,3.2 4.6,3.2 4.6,15 8.2,15 8.2,3.2 12.8,3.2 12.8,0 0,0 	"/>
</g>
</svg>
